<svg width="368" height="526" viewBox="0 0 368 526" fill="none" xmlns="http://www.w3.org/2000/svg">
<path d="M301.057 135.182C298.074 109.992 285.976 90.4375 264.764 76.517C243.552 62.5966 217.534 55.6363 186.71 55.6363C164.172 55.6363 144.452 59.2822 127.548 66.5738C110.811 73.8655 97.7188 83.8916 88.2727 96.652C78.9924 109.412 74.3523 123.913 74.3523 140.153C74.3523 153.742 77.5838 165.426 84.0469 175.203C90.6757 184.815 99.1274 192.852 109.402 199.315C119.677 205.613 130.448 210.833 141.717 214.976C152.986 218.953 163.344 222.185 172.79 224.67L224.494 238.591C237.752 242.071 252.501 246.877 268.741 253.009C285.148 259.14 300.808 267.509 315.723 278.115C330.804 288.555 343.232 301.979 353.01 318.385C362.787 334.791 367.676 354.926 367.676 378.79C367.676 406.299 360.467 431.157 346.05 453.364C331.798 475.57 310.917 493.219 283.408 506.311C256.064 519.403 222.837 525.949 183.727 525.949C147.269 525.949 115.699 520.066 89.0185 508.3C62.5033 496.534 41.6226 480.127 26.3764 459.081C11.2959 438.035 2.76136 413.591 0.772728 385.75H64.4091C66.0663 404.973 72.5294 420.883 83.7983 433.477C95.233 445.906 109.651 455.187 127.051 461.318C144.617 467.284 163.509 470.267 183.727 470.267C207.259 470.267 228.389 466.455 247.115 458.832C265.841 451.044 280.673 440.272 291.611 426.517C302.548 412.597 308.017 396.356 308.017 377.795C308.017 360.892 303.294 347.137 293.848 336.531C284.402 325.925 271.973 317.308 256.561 310.679C241.149 304.05 224.494 298.25 206.597 293.278L143.955 275.381C104.182 263.946 72.6951 247.623 49.4943 226.411C26.2936 205.198 14.6932 177.44 14.6932 143.136C14.6932 114.633 22.3991 89.7746 37.8111 68.5625C53.3887 47.1846 74.2694 30.6127 100.453 18.8466C126.803 6.91476 156.218 0.948845 188.699 0.948845C221.511 0.948845 250.678 6.83189 276.199 18.598C301.72 30.1984 321.938 46.1074 336.852 66.3253C351.933 86.5431 359.887 109.495 360.716 135.182H301.057Z" fill="#272727"/>
</svg>
