<svg width="143" height="30" viewBox="0 0 143 30" fill="none" xmlns="http://www.w3.org/2000/svg">
<path d="M4.66497 5.68C4.66497 6.736 4.94364 7.68933 5.50097 8.54C6.05831 9.39067 6.73297 10.1387 7.52497 10.784C8.34631 11.4 9.44631 12.148 10.825 13.028C12.321 13.996 13.4943 14.832 14.345 15.536C15.225 16.24 15.973 17.0907 16.589 18.088C17.205 19.056 17.513 20.1707 17.513 21.432C17.513 23.9253 16.633 25.9053 14.873 27.372C13.1423 28.8093 10.8983 29.528 8.14097 29.528C6.82097 29.528 5.41297 29.352 3.91697 29C2.42097 28.6187 1.42364 28.208 0.924972 27.768C0.778306 27.68 0.675639 27.592 0.616972 27.504C0.587639 27.3867 0.558306 27.196 0.528972 26.932L0.352972 19.936C0.323639 19.8187 0.382306 19.7453 0.528972 19.716C0.704972 19.6867 0.822306 19.7307 0.880972 19.848C1.70231 21.5493 2.46497 22.9867 3.16897 24.16C3.90231 25.304 4.78231 26.3013 5.80897 27.152C6.83564 28.0027 7.99431 28.428 9.28497 28.428C11.8663 28.428 13.157 27.02 13.157 24.204C13.157 22.8547 12.849 21.6667 12.233 20.64C11.6463 19.6133 10.913 18.7627 10.033 18.088C9.18231 17.384 8.03831 16.5627 6.60097 15.624C5.28097 14.7733 4.22497 14.04 3.43297 13.424C2.64097 12.7787 1.96631 12.016 1.40897 11.136C0.880972 10.256 0.616972 9.25867 0.616972 8.144C0.616972 6.56 1.05697 5.24 1.93697 4.184C2.84631 3.09867 4.00497 2.30667 5.41297 1.808C6.82097 1.28 8.31697 1.016 9.90097 1.016C10.9276 1.016 11.9983 1.11867 13.113 1.324C14.257 1.5 15.137 1.72 15.753 1.984C16.017 2.13067 16.193 2.27733 16.281 2.424C16.369 2.54133 16.413 2.688 16.413 2.864V9.332C16.413 9.42 16.3396 9.49333 16.193 9.552C16.0463 9.58133 15.9436 9.552 15.885 9.464C15.797 9.288 15.4743 8.54 14.917 7.22C14.389 5.87067 13.5676 4.668 12.453 3.612C11.3676 2.52667 10.121 1.984 8.71297 1.984C7.53964 1.984 6.57164 2.336 5.80897 3.04C5.04631 3.71467 4.66497 4.59467 4.66497 5.68ZM50.2878 28.472C50.3758 28.472 50.4198 28.56 50.4198 28.736C50.4198 28.912 50.3758 29 50.2878 29C49.7598 29 48.9385 28.9707 47.8238 28.912C46.5918 28.8533 45.6092 28.824 44.8758 28.824C44.1132 28.824 43.1745 28.8533 42.0598 28.912C41.0038 28.9707 40.2265 29 39.7278 29C39.6105 29 39.5518 28.912 39.5518 28.736C39.5518 28.56 39.6105 28.472 39.7278 28.472C40.6078 28.472 41.2385 28.384 41.6198 28.208C42.0012 28.0027 42.1918 27.6507 42.1918 27.152C42.1918 26.712 42.0158 26.096 41.6638 25.304L37.7918 16.02H30.8398L27.8478 23.324C27.3785 24.4387 27.1438 25.3333 27.1438 26.008C27.1438 26.8587 27.4811 27.4893 28.1558 27.9C28.8305 28.2813 29.8718 28.472 31.2798 28.472C31.3971 28.472 31.4558 28.56 31.4558 28.736C31.4558 28.912 31.3825 29 31.2358 29C30.8545 29 30.0185 28.9707 28.7278 28.912C27.2611 28.8533 26.1465 28.824 25.3838 28.824C24.6798 28.824 23.8585 28.8533 22.9198 28.912C22.0985 28.9707 21.4238 29 20.8958 29C20.7785 29 20.7198 28.912 20.7198 28.736C20.7198 28.56 20.7785 28.472 20.8958 28.472C21.7758 28.472 22.7291 28.0027 23.7558 27.064C24.8118 26.096 25.7211 24.7467 26.4838 23.016L35.7678 1.104C35.7678 1.016 35.8705 0.971999 36.0758 0.971999C36.3398 0.971999 36.5305 1.03067 36.6478 1.148L46.5038 25.304C46.9438 26.3307 47.2665 27.02 47.4718 27.372C47.7065 27.724 48.0292 28.0027 48.4398 28.208C48.8505 28.384 49.4665 28.472 50.2878 28.472ZM31.3678 14.788H37.3078L34.3158 7.616L31.3678 14.788ZM77.0075 1.5C77.1542 1.5 77.2275 1.588 77.2275 1.764C77.2275 1.94 77.1542 2.028 77.0075 2.028C75.9222 2.028 74.9688 2.336 74.1475 2.952C73.3555 3.568 72.6075 4.82933 71.9035 6.736L63.5435 28.956C63.4555 29.1027 63.2355 29.176 62.8835 29.176C62.7368 29.176 62.5902 29.1467 62.4435 29.088C62.2968 29.0587 62.2088 29.0147 62.1795 28.956L51.2235 5.152C50.6955 3.97867 50.1822 3.172 49.6835 2.732C49.1848 2.26267 48.5248 2.028 47.7035 2.028C47.6155 2.028 47.5715 1.94 47.5715 1.764C47.5715 1.588 47.6008 1.5 47.6595 1.5L49.9915 1.544C51.0475 1.60267 51.8248 1.632 52.3235 1.632C53.4382 1.632 54.6995 1.60267 56.1075 1.544L58.2635 1.5C58.4102 1.5 58.4835 1.588 58.4835 1.764C58.4835 1.94 58.4102 2.028 58.2635 2.028C56.6208 2.028 55.7995 2.48267 55.7995 3.392C55.7995 3.71467 55.9168 4.15466 56.1515 4.712L64.4235 22.884L70.3635 6.604C70.5982 5.95867 70.7155 5.40133 70.7155 4.932C70.7155 4.02267 70.3782 3.31867 69.7035 2.82C69.0288 2.292 68.1342 2.028 67.0195 2.028C66.9022 2.028 66.8435 1.94 66.8435 1.764C66.8435 1.588 66.9022 1.5 67.0195 1.5L69.2635 1.544C70.5542 1.60267 71.7275 1.632 72.7835 1.632C73.3702 1.632 74.1035 1.60267 74.9835 1.544L77.0075 1.5ZM93.0685 29.528C90.2819 29.528 87.8179 28.8973 85.6765 27.636C83.5352 26.3747 81.8779 24.6733 80.7045 22.532C79.5605 20.3613 78.9885 17.956 78.9885 15.316C78.9885 12.6173 79.6192 10.1827 80.8805 8.012C82.1712 5.84133 83.9312 4.14 86.1605 2.908C88.4192 1.64666 90.9565 1.016 93.7725 1.016C96.6179 1.016 99.1259 1.632 101.297 2.864C103.467 4.06667 105.139 5.73867 106.313 7.88C107.515 9.992 108.117 12.3533 108.117 14.964C108.117 17.868 107.427 20.4347 106.049 22.664C104.699 24.864 102.866 26.5653 100.549 27.768C98.2605 28.9413 95.7672 29.528 93.0685 29.528ZM94.9165 28.384C96.5299 28.384 97.9379 27.944 99.1405 27.064C100.373 26.184 101.326 24.9373 102.001 23.324C102.675 21.6813 103.013 19.76 103.013 17.56C103.013 14.8613 102.558 12.324 101.649 9.948C100.739 7.572 99.4632 5.66533 97.8205 4.228C96.1779 2.79066 94.3005 2.072 92.1885 2.072C90.5752 2.072 89.1525 2.512 87.9205 3.392C86.6885 4.272 85.7352 5.53333 85.0605 7.176C84.3859 8.78933 84.0485 10.696 84.0485 12.896C84.0485 15.536 84.5032 18.0587 85.4125 20.464C86.3219 22.84 87.5979 24.7613 89.2405 26.228C90.9125 27.6653 92.8045 28.384 94.9165 28.384ZM142.364 28.472C142.452 28.472 142.496 28.56 142.496 28.736C142.525 28.912 142.481 29 142.364 29H135.148C134.444 29 133.212 27.8267 131.452 25.48C129.721 23.104 127.624 19.54 125.16 14.788C124.339 14.9933 123.429 15.096 122.432 15.096C122.285 15.096 122.095 15.0667 121.86 15.008V25.436C121.831 26.2867 121.889 26.932 122.036 27.372C122.212 27.7827 122.505 28.076 122.916 28.252C123.356 28.3987 124.016 28.472 124.896 28.472C125.013 28.472 125.072 28.56 125.072 28.736C125.101 28.912 125.057 29 124.94 29C123.943 29 123.18 28.9853 122.652 28.956L119.396 28.912L116.096 28.956C115.509 28.9853 114.717 29 113.72 29C113.603 29 113.529 28.912 113.5 28.736C113.5 28.56 113.559 28.472 113.676 28.472C114.644 28.472 115.363 28.3987 115.832 28.252C116.301 28.076 116.609 27.7827 116.756 27.372C116.932 26.932 117.035 26.2867 117.064 25.436V5.064C117.064 4.184 116.976 3.53867 116.8 3.128C116.653 2.71733 116.36 2.43866 115.92 2.292C115.48 2.116 114.805 2.028 113.896 2.028C113.779 2.028 113.72 1.94 113.72 1.764C113.72 1.588 113.779 1.5 113.896 1.5L116.228 1.544C117.519 1.60267 118.575 1.632 119.396 1.632C120.393 1.632 121.479 1.57333 122.652 1.456C123.591 1.39733 124.207 1.368 124.5 1.368C127.463 1.368 129.677 1.852 131.144 2.82C132.64 3.788 133.388 5.13733 133.388 6.868C133.388 8.12933 132.963 9.34667 132.112 10.52C131.291 11.6933 130.191 12.676 128.812 13.468C131.1 17.252 133.036 20.2293 134.62 22.4C136.233 24.5413 137.641 26.096 138.844 27.064C140.076 28.0027 141.249 28.472 142.364 28.472ZM121.86 13.776C122.212 13.864 122.637 13.908 123.136 13.908C125.072 13.908 126.436 13.4827 127.228 12.632C128.049 11.7813 128.46 10.3587 128.46 8.364C128.46 6.28133 128.049 4.756 127.228 3.788C126.436 2.79066 125.453 2.292 124.28 2.292C123.488 2.292 122.945 2.35066 122.652 2.468C122.359 2.556 122.153 2.79067 122.036 3.172C121.948 3.524 121.889 4.184 121.86 5.152V13.776Z" fill="white"/>
</svg>
